<?xml version="1.0" encoding="UTF-8"?>
<!DOCTYPE svg PUBLIC "-//W3C//DTD SVG 1.1//EN" "http://www.w3.org/Graphics/SVG/1.1/DTD/svg11.dtd">
<svg xmlns="http://www.w3.org/2000/svg" version="1.1" width="512px" height="512px" style="shape-rendering:geometricPrecision; text-rendering:geometricPrecision; image-rendering:optimizeQuality; fill-rule:evenodd; clip-rule:evenodd" xmlns:xlink="http://www.w3.org/1999/xlink">
<g><path style="opacity:0.963" fill="#75a2fe" d="M 263.5,48.5 C 258.167,48.5 252.833,48.5 247.5,48.5C 243.112,49.0567 239.945,47.3901 238,43.5C 237.333,34.8333 237.333,26.1667 238,17.5C 238.833,15.3333 240.333,13.8333 242.5,13C 251.167,12.3333 259.833,12.3333 268.5,13C 270.667,13.8333 272.167,15.3333 273,17.5C 273.667,26.1667 273.667,34.8333 273,43.5C 271.055,47.3901 267.888,49.0567 263.5,48.5 Z"/></g>
<g><path style="opacity:0.979" fill="#fe627a" d="M 141.5,32.5 C 141.354,49.9622 132.687,56.6289 115.5,52.5C 114.804,35.698 122.804,28.5313 139.5,31C 140.416,31.2784 141.082,31.7784 141.5,32.5 Z"/></g>
<g><path style="opacity:0.979" fill="#fe627a" d="M 386.5,32.5 C 386.354,49.9622 377.687,56.6289 360.5,52.5C 359.804,35.698 367.804,28.5313 384.5,31C 385.416,31.2784 386.082,31.7784 386.5,32.5 Z"/></g>
<g><path style="opacity:0.969" fill="#f63f53" d="M 141.5,32.5 C 150.066,37.3802 152.899,44.7135 150,54.5C 148.006,58.9927 144.84,62.326 140.5,64.5C 135.5,65.8333 130.5,65.8333 125.5,64.5C 120.349,62.0158 117.016,58.0158 115.5,52.5C 132.687,56.6289 141.354,49.9622 141.5,32.5 Z"/></g>
<g><path style="opacity:0.969" fill="#f63f53" d="M 386.5,32.5 C 395.066,37.3802 397.899,44.7135 395,54.5C 393.006,58.9927 389.84,62.326 385.5,64.5C 380.5,65.8333 375.5,65.8333 370.5,64.5C 365.349,62.0158 362.016,58.0158 360.5,52.5C 377.687,56.6289 386.354,49.9622 386.5,32.5 Z"/></g>
<g><path style="opacity:0.979" fill="#548cfd" d="M 247.5,48.5 C 252.833,48.5 258.167,48.5 263.5,48.5C 263.5,59.8333 263.5,71.1667 263.5,82.5C 263.5,82.8333 263.5,83.1667 263.5,83.5C 262.668,106.663 262.168,129.996 262,153.5C 259.824,155.875 257.657,158.208 255.5,160.5C 253.139,158.806 251.139,156.806 249.5,154.5C 248.833,130.67 248.167,107.003 247.5,83.5C 247.5,83.1667 247.5,82.8333 247.5,82.5C 247.5,71.1667 247.5,59.8333 247.5,48.5 Z"/></g>
<g><path style="opacity:0.993" fill="#fea1af" d="M 125.5,64.5 C 130.5,65.8333 135.5,65.8333 140.5,64.5C 140.075,77.8935 140.575,91.2269 142,104.5C 142.833,106.667 144.333,108.167 146.5,109C 151.42,110.25 156.42,110.75 161.5,110.5C 178.237,110.044 194.903,110.544 211.5,112C 224.9,118.299 230.233,128.799 227.5,143.5C 222.5,143.5 217.5,143.5 212.5,143.5C 212.666,139.486 212.499,135.486 212,131.5C 210.74,128.572 208.573,126.739 205.5,126C 184.136,125.8 162.803,125.3 141.5,124.5C 133.393,121.558 128.226,115.891 126,107.5C 125.5,93.1705 125.333,78.8372 125.5,64.5 Z"/></g>
<g><path style="opacity:0.98" fill="#ffa1b0" d="M 370.5,64.5 C 375.5,65.8333 380.5,65.8333 385.5,64.5C 385.667,78.8372 385.5,93.1705 385,107.5C 382.774,115.891 377.607,121.558 369.5,124.5C 368.833,124.5 368.167,124.5 367.5,124.5C 363.833,119.833 360.167,115.167 356.5,110.5C 361.845,110.801 366.012,108.801 369,104.5C 370.425,91.2269 370.925,77.8935 370.5,64.5 Z"/></g>
<g><path style="opacity:0.989" fill="#fde685" d="M 247.5,82.5 C 247.5,82.8333 247.5,83.1667 247.5,83.5C 247.667,106.502 247.5,129.502 247,152.5C 241.265,147.865 234.765,144.865 227.5,143.5C 230.233,128.799 224.9,118.299 211.5,112C 194.903,110.544 178.237,110.044 161.5,110.5C 187.489,93.3935 216.156,84.0602 247.5,82.5 Z"/></g>
<g><path style="opacity:0.991" fill="#fde685" d="M 263.5,82.5 C 290.65,83.9501 315.983,91.2835 339.5,104.5C 340.167,106.5 340.833,108.5 341.5,110.5C 328.496,110.333 315.496,110.5 302.5,111C 287.044,116.403 280.711,127.236 283.5,143.5C 276.177,144.745 269.677,147.745 264,152.5C 263.5,129.502 263.333,106.502 263.5,83.5C 263.5,83.1667 263.5,82.8333 263.5,82.5 Z"/></g>
<g><path style="opacity:0.904" fill="#face26" d="M 339.5,104.5 C 343.173,106 346.506,108 349.5,110.5C 347.167,110.5 344.833,110.5 342.5,110.5C 342.167,110.5 341.833,110.5 341.5,110.5C 340.833,108.5 340.167,106.5 339.5,104.5 Z"/></g>
<g><path style="opacity:1" fill="#fea1af" d="M 341.5,110.5 C 341.833,110.5 342.167,110.5 342.5,110.5C 344.777,115.387 346.777,120.387 348.5,125.5C 333.83,125.333 319.163,125.5 304.5,126C 302,127.167 300.167,129 299,131.5C 298.501,135.486 298.334,139.486 298.5,143.5C 297.5,143.5 296.5,143.5 295.5,143.5C 291.601,142.209 287.601,142.209 283.5,143.5C 280.711,127.236 287.044,116.403 302.5,111C 315.496,110.5 328.496,110.333 341.5,110.5 Z"/></g>
<g><path style="opacity:1" fill="#fe8295" d="M 342.5,110.5 C 344.833,110.5 347.167,110.5 349.5,110.5C 351.833,110.5 354.167,110.5 356.5,110.5C 360.167,115.167 363.833,119.833 367.5,124.5C 361.545,125.363 355.545,125.697 349.5,125.5C 349.167,125.5 348.833,125.5 348.5,125.5C 346.777,120.387 344.777,115.387 342.5,110.5 Z"/></g>
<g><path style="opacity:0.979" fill="#fe627a" d="M 56.5,117.5 C 56.354,134.962 47.6873,141.629 30.5,137.5C 29.8041,120.698 37.8041,113.531 54.5,116C 55.4158,116.278 56.0825,116.778 56.5,117.5 Z"/></g>
<g><path style="opacity:0.984" fill="#fe637b" d="M 471.5,117.5 C 471.525,134.467 463.192,141.134 446.5,137.5C 445.274,133.633 445.274,129.633 446.5,125.5C 452.482,115.427 460.815,112.761 471.5,117.5 Z"/></g>
<g><path style="opacity:0.969" fill="#f63f53" d="M 56.5,117.5 C 60.145,119.145 62.8116,121.812 64.5,125.5C 65.7694,130.486 65.7694,135.486 64.5,140.5C 59.4711,149.673 51.8044,152.839 41.5,150C 35.8561,147.526 32.1895,143.359 30.5,137.5C 47.6873,141.629 56.354,134.962 56.5,117.5 Z"/></g>
<g><path style="opacity:0.967" fill="#f63e52" d="M 471.5,117.5 C 480.066,122.38 482.899,129.714 480,139.5C 473.606,150.81 464.439,153.643 452.5,148C 449.906,145.914 447.906,143.414 446.5,140.5C 446.5,139.5 446.5,138.5 446.5,137.5C 463.192,141.134 471.525,134.467 471.5,117.5 Z"/></g>
<g><path style="opacity:0.998" fill="#fde685" d="M 141.5,124.5 C 162.803,125.3 184.136,125.8 205.5,126C 208.573,126.739 210.74,128.572 212,131.5C 212.499,135.486 212.666,139.486 212.5,143.5C 193.761,147.982 182.428,159.649 178.5,178.5C 159.167,182.5 147.5,194.167 143.5,213.5C 138.551,214.041 133.884,213.208 129.5,211C 127.513,209.681 126.346,207.848 126,205.5C 125.8,184.136 125.3,162.803 124.5,141.5C 130.5,136.167 136.167,130.5 141.5,124.5 Z"/></g>
<g><path style="opacity:0.997" fill="#f9ce24" d="M 367.5,124.5 C 368.167,124.5 368.833,124.5 369.5,124.5C 374.833,130.5 380.5,136.167 386.5,141.5C 385.7,162.803 385.2,184.136 385,205.5C 383.86,209.307 381.36,211.807 377.5,213C 374.183,213.498 370.85,213.665 367.5,213.5C 366.264,207.035 363.931,201.035 360.5,195.5C 361.054,171.475 357.387,148.142 349.5,125.5C 355.545,125.697 361.545,125.363 367.5,124.5 Z"/></g>
<g><path style="opacity:0.993" fill="#fea1af" d="M 64.5,125.5 C 78.8372,125.333 93.1705,125.5 107.5,126C 115.891,128.226 121.558,133.393 124.5,141.5C 125.3,162.803 125.8,184.136 126,205.5C 126.346,207.848 127.513,209.681 129.5,211C 133.884,213.208 138.551,214.041 143.5,213.5C 143.5,218.167 143.5,222.833 143.5,227.5C 127.236,230.289 116.403,223.956 111,208.5C 110.5,192.837 110.333,177.17 110.5,161.5C 110.75,156.42 110.25,151.42 109,146.5C 108.167,144.333 106.667,142.833 104.5,142C 91.2269,140.575 77.8935,140.075 64.5,140.5C 65.7694,135.486 65.7694,130.486 64.5,125.5 Z"/></g>
<g><path style="opacity:1" fill="#fde685" d="M 348.5,125.5 C 348.833,125.5 349.167,125.5 349.5,125.5C 357.387,148.142 361.054,171.475 360.5,195.5C 353.296,186.822 344.129,181.155 333,178.5C 328.605,159.627 317.105,147.96 298.5,143.5C 298.334,139.486 298.501,135.486 299,131.5C 300.167,129 302,127.167 304.5,126C 319.163,125.5 333.83,125.333 348.5,125.5 Z"/></g>
<g><path style="opacity:0.993" fill="#fea1af" d="M 446.5,125.5 C 445.274,129.633 445.274,133.633 446.5,137.5C 446.5,138.5 446.5,139.5 446.5,140.5C 433.106,140.075 419.773,140.575 406.5,142C 404.333,142.833 402.833,144.333 402,146.5C 400.75,151.42 400.25,156.42 400.5,161.5C 400.667,176.504 400.5,191.504 400,206.5C 398.021,217.145 391.854,223.978 381.5,227C 376.845,227.499 372.179,227.666 367.5,227.5C 367.5,222.833 367.5,218.167 367.5,213.5C 370.85,213.665 374.183,213.498 377.5,213C 381.36,211.807 383.86,209.307 385,205.5C 385.2,184.136 385.7,162.803 386.5,141.5C 389.442,133.393 395.109,128.226 403.5,126C 417.829,125.5 432.163,125.333 446.5,125.5 Z"/></g>
<g><path style="opacity:1" fill="#78a3fb" d="M 247.5,83.5 C 248.167,107.003 248.833,130.67 249.5,154.5C 251.139,156.806 253.139,158.806 255.5,160.5C 257.657,158.208 259.824,155.875 262,153.5C 262.168,129.996 262.668,106.663 263.5,83.5C 263.333,106.502 263.5,129.502 264,152.5C 269.677,147.745 276.177,144.745 283.5,143.5C 287.601,142.209 291.601,142.209 295.5,143.5C 294.127,143.343 292.793,143.51 291.5,144C 294.547,148.592 297.214,153.426 299.5,158.5C 282.865,155.736 271.032,162.069 264,177.5C 261.796,199.965 271.963,212.132 294.5,214C 298.5,218.333 298.5,222.667 294.5,227C 283.006,228.834 272.839,226.001 264,218.5C 263.333,233.167 263.333,247.833 264,262.5C 265.655,268.481 268.822,273.481 273.5,277.5C 262.085,289.044 248.419,296.711 232.5,300.5C 227.187,299.225 221.854,298.058 216.5,297C 212.5,292.667 212.5,288.333 216.5,284C 227.89,282.576 238.057,285.41 247,292.5C 247.954,276.433 247.621,260.433 246,244.5C 240.155,233.493 230.988,227.993 218.5,228C 213.776,225.565 212.276,221.731 214,216.5C 216.219,214.005 219.052,213.005 222.5,213.5C 231.805,213.53 239.972,216.53 247,222.5C 247.667,207.5 247.667,192.5 247,177.5C 237.785,158.314 223.618,153.481 204.5,163C 196.416,170 192.25,178.834 192,189.5C 190.786,191.049 189.286,192.215 187.5,193C 165.83,195.008 156.33,206.841 159,228.5C 164.733,241.949 174.9,248.782 189.5,249C 193.5,253.333 193.5,257.667 189.5,262C 168.534,263.462 158.201,274.629 158.5,295.5C 153.535,293.351 148.868,290.684 144.5,287.5C 143.52,290.086 143.187,292.753 143.5,295.5C 142.356,291.648 142.356,287.648 143.5,283.5C 144.745,276.177 147.745,269.677 152.5,264C 129.502,263.5 106.502,263.333 83.5,263.5C 107.003,262.833 130.67,262.167 154.5,261.5C 156.833,259.833 158.833,257.833 160.5,255.5C 158.589,252.878 156.255,250.711 153.5,249C 129.996,248.832 106.663,248.332 83.5,247.5C 106.502,247.667 129.502,247.5 152.5,247C 147.865,241.265 144.865,234.765 143.5,227.5C 143.5,222.833 143.5,218.167 143.5,213.5C 147.5,194.167 159.167,182.5 178.5,178.5C 182.428,159.649 193.761,147.982 212.5,143.5C 217.5,143.5 222.5,143.5 227.5,143.5C 234.765,144.865 241.265,147.865 247,152.5C 247.5,129.502 247.667,106.502 247.5,83.5 Z"/></g>
<g><path style="opacity:1" fill="#558bfc" d="M 295.5,143.5 C 296.5,143.5 297.5,143.5 298.5,143.5C 317.105,147.96 328.605,159.627 333,178.5C 344.129,181.155 353.296,186.822 360.5,195.5C 363.931,201.035 366.264,207.035 367.5,213.5C 367.5,218.167 367.5,222.833 367.5,227.5C 366.033,235.432 362.7,242.432 357.5,248.5C 355.049,250.59 352.716,252.923 350.5,255.5C 352.194,257.861 354.194,259.861 356.5,261.5C 380.33,262.167 403.997,262.833 427.5,263.5C 404.498,263.333 381.498,263.5 358.5,264C 363.255,269.677 366.255,276.177 367.5,283.5C 367.5,288.167 367.5,292.833 367.5,297.5C 363.06,315.773 351.727,327.273 333.5,332C 328.274,350.726 316.274,362.559 297.5,367.5C 292.833,367.5 288.167,367.5 283.5,367.5C 275.564,366.031 268.564,362.698 262.5,357.5C 260.41,355.049 258.077,352.716 255.5,350.5C 252.923,352.716 250.59,355.049 248.5,357.5C 242.432,362.7 235.432,366.033 227.5,367.5C 222.833,367.5 218.167,367.5 213.5,367.5C 207.035,366.264 201.035,363.931 195.5,360.5C 186.787,353.272 181.12,344.106 178.5,333C 159.627,328.605 147.96,317.105 143.5,298.5C 143.5,297.5 143.5,296.5 143.5,295.5C 143.187,292.753 143.52,290.086 144.5,287.5C 148.868,290.684 153.535,293.351 158.5,295.5C 162.469,310.298 172.136,317.798 187.5,318C 192.788,321.292 194.955,326.125 194,332.5C 199.929,348.748 211.429,355.248 228.5,352C 244.98,344.538 250.813,332.038 246,314.5C 242.93,308.595 238.43,304.262 232.5,301.5C 232.5,301.167 232.5,300.833 232.5,300.5C 248.419,296.711 262.085,289.044 273.5,277.5C 268.822,273.481 265.655,268.481 264,262.5C 263.333,247.833 263.333,233.167 264,218.5C 272.839,226.001 283.006,228.834 294.5,227C 298.5,222.667 298.5,218.333 294.5,214C 271.963,212.132 261.796,199.965 264,177.5C 271.032,162.069 282.865,155.736 299.5,158.5C 297.214,153.426 294.547,148.592 291.5,144C 292.793,143.51 294.127,143.343 295.5,143.5 Z"/></g>
<g><path style="opacity:1" fill="#548cfd" d="M 232.5,300.5 C 232.5,300.833 232.5,301.167 232.5,301.5C 207.02,308.496 182.354,306.496 158.5,295.5C 158.201,274.629 168.534,263.462 189.5,262C 193.5,257.667 193.5,253.333 189.5,249C 174.9,248.782 164.733,241.949 159,228.5C 156.33,206.841 165.83,195.008 187.5,193C 189.286,192.215 190.786,191.049 192,189.5C 192.25,178.834 196.416,170 204.5,163C 223.618,153.481 237.785,158.314 247,177.5C 247.667,192.5 247.667,207.5 247,222.5C 239.972,216.53 231.805,213.53 222.5,213.5C 219.052,213.005 216.219,214.005 214,216.5C 212.276,221.731 213.776,225.565 218.5,228C 230.988,227.993 240.155,233.493 246,244.5C 247.621,260.433 247.954,276.433 247,292.5C 238.057,285.41 227.89,282.576 216.5,284C 212.5,288.333 212.5,292.667 216.5,297C 221.854,298.058 227.187,299.225 232.5,300.5 Z"/></g>
<g><path style="opacity:1" fill="#3165dc" d="M 300.5,160.5 C 312.351,165.522 318.184,174.522 318,187.5C 321.292,192.788 326.125,194.955 332.5,194C 352.686,202.55 357.853,216.716 348,236.5C 341,244.584 332.166,248.75 321.5,249C 317.5,253.333 317.5,257.667 321.5,262C 344.121,263.942 354.288,276.109 352,298.5C 346.995,311.585 337.495,318.085 323.5,318C 321.714,318.785 320.214,319.951 319,321.5C 317.086,344.089 304.919,354.256 282.5,352C 273.268,348.434 267.101,341.934 264,332.5C 263.333,317.833 263.333,303.167 264,288.5C 272.839,296.001 283.006,298.834 294.5,297C 298.5,292.667 298.5,288.333 294.5,284C 287.12,283.895 280.453,281.729 274.5,277.5C 300.282,252.332 311.115,221.665 307,185.5C 305.745,176.907 303.578,168.573 300.5,160.5 Z"/></g>
<g><path style="opacity:0.988" fill="#fde685" d="M 110.5,161.5 C 110.333,177.17 110.5,192.837 111,208.5C 116.403,223.956 127.236,230.289 143.5,227.5C 144.865,234.765 147.865,241.265 152.5,247C 129.502,247.5 106.502,247.667 83.5,247.5C 83.1667,247.5 82.8333,247.5 82.5,247.5C 84.0597,216.157 93.393,187.49 110.5,161.5 Z"/></g>
<g><path style="opacity:0.992" fill="#f7cd29" d="M 400.5,161.5 C 417.607,187.49 426.94,216.157 428.5,247.5C 404.908,248.489 381.241,248.823 357.5,248.5C 362.7,242.432 366.033,235.432 367.5,227.5C 372.179,227.666 376.845,227.499 381.5,227C 391.854,223.978 398.021,217.145 400,206.5C 400.5,191.504 400.667,176.504 400.5,161.5 Z"/></g>
<g><path style="opacity:1" fill="#75a2fe" d="M 287.5,180.5 C 295.489,179.989 298.655,183.656 297,191.5C 292.585,196.726 288.251,196.726 284,191.5C 282.663,186.872 283.83,183.205 287.5,180.5 Z"/></g>
<g><path style="opacity:1" fill="#75a2fe" d="M 181.5,213.5 C 192.818,212.99 195.485,217.49 189.5,227C 178.105,227.803 175.439,223.303 181.5,213.5 Z"/></g>
<g><path style="opacity:0.964" fill="#75a2fd" d="M 48.5,247.5 C 48.5,252.833 48.5,258.167 48.5,263.5C 49.0567,267.888 47.3901,271.055 43.5,273C 34.8333,273.667 26.1667,273.667 17.5,273C 15.3333,272.167 13.8333,270.667 13,268.5C 12.3333,259.833 12.3333,251.167 13,242.5C 13.8333,240.333 15.3333,238.833 17.5,238C 26.1667,237.333 34.8333,237.333 43.5,238C 47.3901,239.945 49.0567,243.112 48.5,247.5 Z"/></g>
<g><path style="opacity:0.959" fill="#538bfd" d="M 462.5,263.5 C 462.5,258.167 462.5,252.833 462.5,247.5C 461.943,243.112 463.61,239.945 467.5,238C 476.167,237.333 484.833,237.333 493.5,238C 495.667,238.833 497.167,240.333 498,242.5C 498.667,251.167 498.667,259.833 498,268.5C 497.167,270.667 495.667,272.167 493.5,273C 484.833,273.667 476.167,273.667 467.5,273C 463.61,271.055 461.943,267.888 462.5,263.5 Z"/></g>
<g><path style="opacity:0.979" fill="#548cfd" d="M 48.5,247.5 C 59.8333,247.5 71.1667,247.5 82.5,247.5C 82.8333,247.5 83.1667,247.5 83.5,247.5C 106.663,248.332 129.996,248.832 153.5,249C 156.255,250.711 158.589,252.878 160.5,255.5C 158.833,257.833 156.833,259.833 154.5,261.5C 130.67,262.167 107.003,262.833 83.5,263.5C 83.1667,263.5 82.8333,263.5 82.5,263.5C 71.1667,263.5 59.8333,263.5 48.5,263.5C 48.5,258.167 48.5,252.833 48.5,247.5 Z"/></g>
<g><path style="opacity:0.978" fill="#3165dc" d="M 428.5,247.5 C 439.833,247.5 451.167,247.5 462.5,247.5C 462.5,252.833 462.5,258.167 462.5,263.5C 451.167,263.5 439.833,263.5 428.5,263.5C 428.167,263.5 427.833,263.5 427.5,263.5C 403.997,262.833 380.33,262.167 356.5,261.5C 354.194,259.861 352.194,257.861 350.5,255.5C 352.716,252.923 355.049,250.59 357.5,248.5C 381.241,248.823 404.908,248.489 428.5,247.5 Z"/></g>
<g><path style="opacity:0.99" fill="#fde685" d="M 82.5,263.5 C 82.8333,263.5 83.1667,263.5 83.5,263.5C 106.502,263.333 129.502,263.5 152.5,264C 147.745,269.677 144.745,276.177 143.5,283.5C 127.236,280.711 116.403,287.044 111,302.5C 110.5,315.496 110.333,328.496 110.5,341.5C 108.5,340.833 106.5,340.167 104.5,339.5C 91.2835,315.983 83.9501,290.65 82.5,263.5 Z"/></g>
<g><path style="opacity:0.991" fill="#f9ce24" d="M 427.5,263.5 C 427.833,263.5 428.167,263.5 428.5,263.5C 426.94,294.844 417.606,323.511 400.5,349.5C 400.956,332.763 400.456,316.097 399,299.5C 392.739,286.118 382.239,280.785 367.5,283.5C 366.255,276.177 363.255,269.677 358.5,264C 381.498,263.5 404.498,263.333 427.5,263.5 Z"/></g>
<g><path style="opacity:1" fill="#fea1af" d="M 143.5,283.5 C 142.356,287.648 142.356,291.648 143.5,295.5C 143.5,296.5 143.5,297.5 143.5,298.5C 139.486,298.334 135.486,298.501 131.5,299C 129,300.167 127.167,302 126,304.5C 125.5,319.163 125.333,333.83 125.5,348.5C 120.387,346.777 115.387,344.777 110.5,342.5C 110.5,342.167 110.5,341.833 110.5,341.5C 110.333,328.496 110.5,315.496 111,302.5C 116.403,287.044 127.236,280.711 143.5,283.5 Z"/></g>
<g><path style="opacity:1" fill="#538afd" d="M 321.5,283.5 C 332.818,282.99 335.485,287.49 329.5,297C 318.105,297.803 315.439,293.303 321.5,283.5 Z"/></g>
<g><path style="opacity:0.993" fill="#fea1af" d="M 367.5,283.5 C 382.239,280.785 392.739,286.118 399,299.5C 400.456,316.097 400.956,332.763 400.5,349.5C 400.25,354.58 400.75,359.58 402,364.5C 402.833,366.667 404.333,368.167 406.5,369C 419.773,370.425 433.106,370.925 446.5,370.5C 445.274,374.633 445.274,378.633 446.5,382.5C 446.5,383.5 446.5,384.5 446.5,385.5C 432.163,385.667 417.829,385.5 403.5,385C 395.109,382.774 389.442,377.607 386.5,369.5C 385.711,347.857 385.211,326.19 385,304.5C 380.878,298.197 375.045,295.864 367.5,297.5C 367.5,292.833 367.5,288.167 367.5,283.5 Z"/></g>
<g><path style="opacity:1" fill="#3165dc" d="M 158.5,295.5 C 182.354,306.496 207.02,308.496 232.5,301.5C 238.43,304.262 242.93,308.595 246,314.5C 250.813,332.038 244.98,344.538 228.5,352C 211.429,355.248 199.929,348.748 194,332.5C 194.955,326.125 192.788,321.292 187.5,318C 172.136,317.798 162.469,310.298 158.5,295.5 Z"/></g>
<g><path style="opacity:1" fill="#fde685" d="M 143.5,298.5 C 147.96,317.105 159.627,328.605 178.5,333C 181.12,344.106 186.787,353.272 195.5,360.5C 171.496,360.917 148.163,357.25 125.5,349.5C 125.5,349.167 125.5,348.833 125.5,348.5C 125.333,333.83 125.5,319.163 126,304.5C 127.167,302 129,300.167 131.5,299C 135.486,298.501 139.486,298.334 143.5,298.5 Z"/></g>
<g><path style="opacity:0.998" fill="#f9ce25" d="M 367.5,297.5 C 375.045,295.864 380.878,298.197 385,304.5C 385.211,326.19 385.711,347.857 386.5,369.5C 380.5,374.833 374.833,380.5 369.5,386.5C 347.857,385.711 326.19,385.211 304.5,385C 298.197,380.878 295.864,375.045 297.5,367.5C 316.274,362.559 328.274,350.726 333.5,332C 351.727,327.273 363.06,315.773 367.5,297.5 Z"/></g>
<g><path style="opacity:1" fill="#538afd" d="M 217.5,315.5 C 225.543,315.04 228.71,318.706 227,326.5C 222.667,331.833 218.333,331.833 214,326.5C 212.663,321.916 213.829,318.249 217.5,315.5 Z"/></g>
<g><path style="opacity:0.845" fill="#fad127" d="M 104.5,339.5 C 106.5,340.167 108.5,340.833 110.5,341.5C 110.5,341.833 110.5,342.167 110.5,342.5C 110.5,344.833 110.5,347.167 110.5,349.5C 108,346.506 106,343.173 104.5,339.5 Z"/></g>
<g><path style="opacity:1" fill="#ff8295" d="M 110.5,342.5 C 115.387,344.777 120.387,346.777 125.5,348.5C 125.5,348.833 125.5,349.167 125.5,349.5C 125.697,355.545 125.363,361.545 124.5,367.5C 119.451,361.786 114.785,355.786 110.5,349.5C 110.5,347.167 110.5,344.833 110.5,342.5 Z"/></g>
<g><path style="opacity:0.998" fill="#f9ce24" d="M 125.5,349.5 C 148.163,357.25 171.496,360.917 195.5,360.5C 201.035,363.931 207.035,366.264 213.5,367.5C 214.041,372.449 213.208,377.116 211,381.5C 209.681,383.487 207.848,384.654 205.5,385C 184.136,385.2 162.803,385.7 141.5,386.5C 136.167,380.5 130.5,374.833 124.5,369.5C 124.5,368.833 124.5,368.167 124.5,367.5C 125.363,361.545 125.697,355.545 125.5,349.5 Z"/></g>
<g><path style="opacity:0.985" fill="#ffa1b0" d="M 110.5,349.5 C 114.785,355.786 119.451,361.786 124.5,367.5C 124.5,368.167 124.5,368.833 124.5,369.5C 121.558,377.607 115.891,382.774 107.5,385C 93.1705,385.5 78.8372,385.667 64.5,385.5C 65.7694,380.486 65.7694,375.486 64.5,370.5C 77.8935,370.925 91.2269,370.425 104.5,369C 106.333,367.833 107.833,366.333 109,364.5C 110.25,359.58 110.75,354.58 110.5,349.5 Z"/></g>
<g><path style="opacity:1" fill="#3165dc" d="M 262.5,357.5 C 262.177,381.241 262.511,404.908 263.5,428.5C 263.5,439.833 263.5,451.167 263.5,462.5C 258.167,463.833 252.833,463.833 247.5,462.5C 247.5,451.167 247.5,439.833 247.5,428.5C 248.489,404.908 248.823,381.241 248.5,357.5C 250.59,355.049 252.923,352.716 255.5,350.5C 258.077,352.716 260.41,355.049 262.5,357.5 Z"/></g>
<g><path style="opacity:0.992" fill="#f7cd29" d="M 248.5,357.5 C 248.823,381.241 248.489,404.908 247.5,428.5C 216.157,426.94 187.49,417.607 161.5,400.5C 176.504,400.667 191.504,400.5 206.5,400C 217.145,398.021 223.978,391.854 227,381.5C 227.499,376.845 227.666,372.179 227.5,367.5C 235.432,366.033 242.432,362.7 248.5,357.5 Z"/></g>
<g><path style="opacity:0.992" fill="#f7cd29" d="M 262.5,357.5 C 268.564,362.698 275.564,366.031 283.5,367.5C 280.891,383.694 287.225,394.528 302.5,400C 318.163,400.5 333.83,400.667 349.5,400.5C 323.509,417.607 294.842,426.941 263.5,428.5C 262.511,404.908 262.177,381.241 262.5,357.5 Z"/></g>
<g><path style="opacity:0.979" fill="#fe627a" d="M 56.5,362.5 C 56.354,379.962 47.6873,386.629 30.5,382.5C 29.8041,365.698 37.8041,358.531 54.5,361C 55.4158,361.278 56.0825,361.778 56.5,362.5 Z"/></g>
<g><path style="opacity:0.984" fill="#fe637b" d="M 471.5,362.5 C 471.525,379.467 463.192,386.134 446.5,382.5C 445.274,378.633 445.274,374.633 446.5,370.5C 452.482,360.427 460.815,357.761 471.5,362.5 Z"/></g>
<g><path style="opacity:0.969" fill="#f63f53" d="M 56.5,362.5 C 60.145,364.145 62.8116,366.812 64.5,370.5C 65.7694,375.486 65.7694,380.486 64.5,385.5C 59.4711,394.673 51.8044,397.839 41.5,395C 35.8561,392.526 32.1895,388.359 30.5,382.5C 47.6873,386.629 56.354,379.962 56.5,362.5 Z"/></g>
<g><path style="opacity:0.967" fill="#f63e52" d="M 471.5,362.5 C 480.066,367.38 482.899,374.714 480,384.5C 473.606,395.81 464.439,398.643 452.5,393C 449.906,390.914 447.906,388.414 446.5,385.5C 446.5,384.5 446.5,383.5 446.5,382.5C 463.192,386.134 471.525,379.467 471.5,362.5 Z"/></g>
<g><path style="opacity:0.993" fill="#fea1af" d="M 213.5,367.5 C 218.167,367.5 222.833,367.5 227.5,367.5C 227.666,372.179 227.499,376.845 227,381.5C 223.978,391.854 217.145,398.021 206.5,400C 191.504,400.5 176.504,400.667 161.5,400.5C 156.42,400.25 151.42,400.75 146.5,402C 144.333,402.833 142.833,404.333 142,406.5C 140.575,419.773 140.075,433.106 140.5,446.5C 135.477,445.31 130.477,445.31 125.5,446.5C 125.333,432.163 125.5,417.829 126,403.5C 128.226,395.109 133.393,389.442 141.5,386.5C 162.803,385.7 184.136,385.2 205.5,385C 207.848,384.654 209.681,383.487 211,381.5C 213.208,377.116 214.041,372.449 213.5,367.5 Z"/></g>
<g><path style="opacity:0.993" fill="#fea1af" d="M 283.5,367.5 C 288.167,367.5 292.833,367.5 297.5,367.5C 295.864,375.045 298.197,380.878 304.5,385C 326.19,385.211 347.857,385.711 369.5,386.5C 377.607,389.442 382.774,395.109 385,403.5C 385.5,417.829 385.667,432.163 385.5,446.5C 380.477,445.31 375.477,445.31 370.5,446.5C 370.925,433.106 370.425,419.773 369,406.5C 368.167,404.333 366.667,402.833 364.5,402C 359.58,400.75 354.58,400.25 349.5,400.5C 333.83,400.667 318.163,400.5 302.5,400C 287.225,394.528 280.891,383.694 283.5,367.5 Z"/></g>
<g><path style="opacity:0.988" fill="#fe637b" d="M 140.5,446.5 C 141.167,446.5 141.5,446.833 141.5,447.5C 141.354,464.962 132.687,471.629 115.5,467.5C 113.768,457.968 117.101,450.968 125.5,446.5C 130.477,445.31 135.477,445.31 140.5,446.5 Z"/></g>
<g><path style="opacity:0.988" fill="#fe637b" d="M 385.5,446.5 C 386.167,446.5 386.5,446.833 386.5,447.5C 386.354,464.962 377.687,471.629 360.5,467.5C 358.768,457.968 362.101,450.968 370.5,446.5C 375.477,445.31 380.477,445.31 385.5,446.5 Z"/></g>
<g><path style="opacity:0.966" fill="#f63e52" d="M 141.5,447.5 C 150.066,452.38 152.899,459.714 150,469.5C 145.117,479.354 137.284,482.854 126.5,480C 120.856,477.526 117.189,473.359 115.5,467.5C 132.687,471.629 141.354,464.962 141.5,447.5 Z"/></g>
<g><path style="opacity:0.966" fill="#f63e52" d="M 386.5,447.5 C 395.066,452.38 397.899,459.714 395,469.5C 390.117,479.354 382.284,482.854 371.5,480C 365.856,477.526 362.189,473.359 360.5,467.5C 377.687,471.629 386.354,464.962 386.5,447.5 Z"/></g>
<g><path style="opacity:0.96" fill="#548bfd" d="M 247.5,462.5 C 252.833,463.833 258.167,463.833 263.5,462.5C 267.888,461.943 271.055,463.61 273,467.5C 273.667,476.167 273.667,484.833 273,493.5C 272.167,495.667 270.667,497.167 268.5,498C 259.833,498.667 251.167,498.667 242.5,498C 240.333,497.167 238.833,495.667 238,493.5C 237.333,484.833 237.333,476.167 238,467.5C 239.945,463.61 243.112,461.943 247.5,462.5 Z"/></g>
</svg>
