<?xml version="1.0" encoding="UTF-8"?>
<!DOCTYPE svg PUBLIC "-//W3C//DTD SVG 1.1//EN" "http://www.w3.org/Graphics/SVG/1.1/DTD/svg11.dtd">
<svg xmlns="http://www.w3.org/2000/svg" version="1.1" width="512px" height="512px" style="shape-rendering:geometricPrecision; text-rendering:geometricPrecision; image-rendering:optimizeQuality; fill-rule:evenodd; clip-rule:evenodd" xmlns:xlink="http://www.w3.org/1999/xlink">
<g><path style="opacity:0.999" fill="#f43f53" d="M 329.5,48.5 C 338.324,47.3427 347.324,47.176 356.5,48C 362.667,50.1667 366.833,54.3333 369,60.5C 369.5,77.8301 369.667,95.1635 369.5,112.5C 369.5,124.167 369.5,135.833 369.5,147.5C 369.5,147.833 369.5,148.167 369.5,148.5C 369.5,204.167 369.5,259.833 369.5,315.5C 352.167,315.5 334.833,315.5 317.5,315.5C 317.5,306.5 317.5,297.5 317.5,288.5C 324.175,288.666 330.842,288.5 337.5,288C 344.667,286.167 349.167,281.667 351,274.5C 351.5,199.167 351.667,123.834 351.5,48.5C 344.167,48.5 336.833,48.5 329.5,48.5 Z"/></g>
<g><path style="opacity:1" fill="#fe627a" d="M 329.5,48.5 C 336.833,48.5 344.167,48.5 351.5,48.5C 351.667,123.834 351.5,199.167 351,274.5C 349.167,281.667 344.667,286.167 337.5,288C 330.842,288.5 324.175,288.666 317.5,288.5C 317.5,297.5 317.5,306.5 317.5,315.5C 317.167,315.5 316.833,315.5 316.5,315.5C 316.5,259.5 316.5,203.5 316.5,147.5C 316.5,135.833 316.5,124.167 316.5,112.5C 316.333,95.1635 316.5,77.8301 317,60.5C 319.088,54.2434 323.255,50.2434 329.5,48.5 Z"/></g>
<g><path style="opacity:0.988" fill="#fbe7dd" d="M 411.5,112.5 C 418.841,112.334 426.174,112.5 433.5,113C 450,116.167 459.833,126 463,142.5C 463.5,225.833 463.667,309.166 463.5,392.5C 417.33,392.168 371.33,392.501 325.5,393.5C 318.833,393.5 312.167,393.5 305.5,393.5C 265.67,392.501 225.67,392.168 185.5,392.5C 139.5,392.5 93.5,392.5 47.5,392.5C 47.5,386.167 47.5,379.833 47.5,373.5C 169.167,373.667 290.834,373.5 412.5,373C 428.151,370.014 437.984,360.847 442,345.5C 442.667,276.5 442.667,207.5 442,138.5C 436.81,123.844 426.643,115.177 411.5,112.5 Z"/></g>
<g><path style="opacity:1" fill="#fef3f3" d="M 316.5,112.5 C 316.5,124.167 316.5,135.833 316.5,147.5C 243.499,147.333 170.499,147.5 97.5,148C 89.907,150.092 85.2404,154.925 83.5,162.5C 82.3347,222.332 82.1681,282.332 83,342.5C 84.7315,350.565 89.5648,355.732 97.5,358C 202.833,358.667 308.167,358.667 413.5,358C 420.262,356.237 424.762,352.07 427,345.5C 427.667,283.5 427.667,221.5 427,159.5C 424.235,153.069 419.402,149.236 412.5,148C 398.171,147.5 383.837,147.333 369.5,147.5C 369.5,135.833 369.5,124.167 369.5,112.5C 383.5,112.5 397.5,112.5 411.5,112.5C 426.643,115.177 436.81,123.844 442,138.5C 442.667,207.5 442.667,276.5 442,345.5C 437.984,360.847 428.151,370.014 412.5,373C 290.834,373.5 169.167,373.667 47.5,373.5C 47.3333,296.166 47.5,218.833 48,141.5C 51.6187,125.548 61.452,116.048 77.5,113C 157.166,112.5 236.833,112.333 316.5,112.5 Z"/></g>
<g><path style="opacity:1" fill="#3265db" d="M 316.5,147.5 C 316.5,203.5 316.5,259.5 316.5,315.5C 304.833,315.5 293.167,315.5 281.5,315.5C 281.667,276.832 281.5,238.165 281,199.5C 278.025,192.022 272.525,188.356 264.5,188.5C 256.598,187.087 248.598,187.254 240.5,189C 233.947,191.711 230.28,196.545 229.5,203.5C 228.502,240.663 228.168,277.996 228.5,315.5C 217.167,315.5 205.833,315.5 194.5,315.5C 194.831,289.661 194.498,263.995 193.5,238.5C 191.01,230.081 185.344,225.748 176.5,225.5C 169.159,225.334 161.826,225.5 154.5,226C 149.475,227.689 145.641,230.856 143,235.5C 141.536,255.433 141.036,275.433 141.5,295.5C 141.5,302.167 141.5,308.833 141.5,315.5C 132.5,315.5 123.5,315.5 114.5,315.5C 104.167,315.5 93.8333,315.5 83.5,315.5C 83.5,264.5 83.5,213.5 83.5,162.5C 85.2404,154.925 89.907,150.092 97.5,148C 170.499,147.5 243.499,147.333 316.5,147.5 Z"/></g>
<g><path style="opacity:1" fill="#3165dc" d="M 369.5,148.5 C 380.5,148.5 391.5,148.5 402.5,148.5C 402.667,194.835 402.5,241.168 402,287.5C 397.77,302.9 387.937,312.234 372.5,315.5C 371.5,315.5 370.5,315.5 369.5,315.5C 369.5,259.833 369.5,204.167 369.5,148.5 Z"/></g>
<g><path style="opacity:1" fill="#568dfd" d="M 369.5,148.5 C 369.5,148.167 369.5,147.833 369.5,147.5C 383.837,147.333 398.171,147.5 412.5,148C 419.402,149.236 424.235,153.069 427,159.5C 427.667,221.5 427.667,283.5 427,345.5C 424.762,352.07 420.262,356.237 413.5,358C 308.167,358.667 202.833,358.667 97.5,358C 89.5648,355.732 84.7315,350.565 83,342.5C 82.1681,282.332 82.3347,222.332 83.5,162.5C 83.5,213.5 83.5,264.5 83.5,315.5C 93.8333,315.5 104.167,315.5 114.5,315.5C 109.202,320.258 109.202,325.092 114.5,330C 208.167,330.667 301.833,330.667 395.5,330C 401.16,326.378 401.826,322.044 397.5,317C 389.277,315.562 380.943,315.062 372.5,315.5C 387.937,312.234 397.77,302.9 402,287.5C 402.5,241.168 402.667,194.835 402.5,148.5C 391.5,148.5 380.5,148.5 369.5,148.5 Z"/></g>
<g><path style="opacity:1" fill="#f9ce23" d="M 264.5,188.5 C 264.977,219.563 264.477,250.563 263,281.5C 260.259,287.902 255.426,291.735 248.5,293C 242.175,293.5 235.842,293.666 229.5,293.5C 229.5,263.5 229.5,233.5 229.5,203.5C 230.28,196.545 233.947,191.711 240.5,189C 248.598,187.254 256.598,187.087 264.5,188.5 Z"/></g>
<g><path style="opacity:1" fill="#fb9d1d" d="M 264.5,188.5 C 272.525,188.356 278.025,192.022 281,199.5C 281.5,238.165 281.667,276.832 281.5,315.5C 264.167,315.5 246.833,315.5 229.5,315.5C 229.5,308.167 229.5,300.833 229.5,293.5C 235.842,293.666 242.175,293.5 248.5,293C 255.426,291.735 260.259,287.902 263,281.5C 264.477,250.563 264.977,219.563 264.5,188.5 Z"/></g>
<g><path style="opacity:1" fill="#fde685" d="M 176.5,225.5 C 176.964,245.567 176.464,265.567 175,285.5C 172.833,289 170,291.833 166.5,294C 158.571,295.363 150.571,295.863 142.5,295.5C 142.167,295.5 141.833,295.5 141.5,295.5C 141.036,275.433 141.536,255.433 143,235.5C 145.641,230.856 149.475,227.689 154.5,226C 161.826,225.5 169.159,225.334 176.5,225.5 Z"/></g>
<g><path style="opacity:1" fill="#f7d792" d="M 176.5,225.5 C 185.344,225.748 191.01,230.081 193.5,238.5C 193.5,264.167 193.5,289.833 193.5,315.5C 176.5,315.5 159.5,315.5 142.5,315.5C 142.5,308.833 142.5,302.167 142.5,295.5C 150.571,295.863 158.571,295.363 166.5,294C 170,291.833 172.833,289 175,285.5C 176.464,265.567 176.964,245.567 176.5,225.5 Z"/></g>
<g><path style="opacity:1" fill="#eaddd8" d="M 229.5,203.5 C 229.5,233.5 229.5,263.5 229.5,293.5C 229.5,300.833 229.5,308.167 229.5,315.5C 246.833,315.5 264.167,315.5 281.5,315.5C 293.167,315.5 304.833,315.5 316.5,315.5C 316.833,315.5 317.167,315.5 317.5,315.5C 334.833,315.5 352.167,315.5 369.5,315.5C 370.5,315.5 371.5,315.5 372.5,315.5C 380.943,315.062 389.277,315.562 397.5,317C 401.826,322.044 401.16,326.378 395.5,330C 301.833,330.667 208.167,330.667 114.5,330C 109.202,325.092 109.202,320.258 114.5,315.5C 123.5,315.5 132.5,315.5 141.5,315.5C 141.5,308.833 141.5,302.167 141.5,295.5C 141.833,295.5 142.167,295.5 142.5,295.5C 142.5,302.167 142.5,308.833 142.5,315.5C 159.5,315.5 176.5,315.5 193.5,315.5C 193.5,289.833 193.5,264.167 193.5,238.5C 194.498,263.995 194.831,289.661 194.5,315.5C 205.833,315.5 217.167,315.5 228.5,315.5C 228.168,277.996 228.502,240.663 229.5,203.5 Z"/></g>
<g><path style="opacity:1" fill="#ede0db" d="M 47.5,392.5 C 93.5,392.5 139.5,392.5 185.5,392.5C 185.5,397.833 185.5,403.167 185.5,408.5C 185.644,418.301 190.311,424.801 199.5,428C 236.5,428.667 273.5,428.667 310.5,428C 317.798,426.703 322.631,422.536 325,415.5C 325.5,408.174 325.666,400.841 325.5,393.5C 371.33,392.501 417.33,392.168 463.5,392.5C 461.373,417.463 448.039,432.63 423.5,438C 291.5,438.667 159.5,438.667 27.5,438C 20.3827,435.71 15.3827,431.21 12.5,424.5C 9.34324,397.998 21.0099,387.331 47.5,392.5 Z"/></g>
<g><path style="opacity:1" fill="#fad02b" d="M 185.5,392.5 C 225.67,392.168 265.67,392.501 305.5,393.5C 305.846,403.654 301.179,410.154 291.5,413C 257.833,413.667 224.167,413.667 190.5,413C 188.341,411.941 186.674,410.441 185.5,408.5C 185.5,403.167 185.5,397.833 185.5,392.5 Z"/></g>
<g><path style="opacity:1" fill="#fde687" d="M 305.5,393.5 C 312.167,393.5 318.833,393.5 325.5,393.5C 325.666,400.841 325.5,408.174 325,415.5C 322.631,422.536 317.798,426.703 310.5,428C 273.5,428.667 236.5,428.667 199.5,428C 190.311,424.801 185.644,418.301 185.5,408.5C 186.674,410.441 188.341,411.941 190.5,413C 224.167,413.667 257.833,413.667 291.5,413C 301.179,410.154 305.846,403.654 305.5,393.5 Z"/></g>
<g><path style="opacity:0.982" fill="#dfd2cd" d="M 463.5,392.5 C 471.585,392.099 479.585,392.599 487.5,394C 493.164,396.332 496.664,400.499 498,406.5C 498.667,415.5 498.667,424.5 498,433.5C 494.833,450 485,459.833 468.5,463C 326.5,463.667 184.5,463.667 42.5,463C 22.0889,458.368 12.0889,445.534 12.5,424.5C 15.3827,431.21 20.3827,435.71 27.5,438C 159.5,438.667 291.5,438.667 423.5,438C 448.039,432.63 461.373,417.463 463.5,392.5 Z"/></g>
</svg>
